<svg viewBox="0 0 319.45 522" xmlns="http://www.w3.org/2000/svg"><g fill="#fff" transform="translate(-142.67 -30.5)"><path d="m229 311c-.29-12.42-2.84-128.54 1-207 .49-10.06 1.84-28.44 14.31-44.94 20.79-27.48 53.89-28.5 58.19-28.56 0 0 70.5 4.5 73.5 66.5s0 209 0 209-14 52-74 52a77.58 77.58 0 0 1 -73-47z"/><path d="m327 447.84v51.16h78v53.5h-205.38l.38-52.5h76l1-52.17c-169.28-16.42-130.48-201-130.48-201l51.48.17s-34 152 104 152 98-152 106-152 50.5-.21 50.5-.21 37.89 184.64-131.5 201.05z"/></g></svg>
